<?xml version="1.0" standalone="no"?><svg xmlns="http://www.w3.org/2000/svg" viewBox="0 0 1440 320"><path fill="#5000ca" fill-opacity="1" d="M0,160L17.1,154.7C34.3,149,69,139,103,138.7C137.1,139,171,149,206,154.7C240,160,274,160,309,149.3C342.9,139,377,117,411,106.7C445.7,96,480,96,514,128C548.6,160,583,224,617,229.3C651.4,235,686,181,720,181.3C754.3,181,789,235,823,234.7C857.1,235,891,181,926,181.3C960,181,994,235,1029,245.3C1062.9,256,1097,224,1131,218.7C1165.7,213,1200,235,1234,234.7C1268.6,235,1303,213,1337,218.7C1371.4,224,1406,256,1423,272L1440,288L1440,0L1422.9,0C1405.7,0,1371,0,1337,0C1302.9,0,1269,0,1234,0C1200,0,1166,0,1131,0C1097.1,0,1063,0,1029,0C994.3,0,960,0,926,0C891.4,0,857,0,823,0C788.6,0,754,0,720,0C685.7,0,651,0,617,0C582.9,0,549,0,514,0C480,0,446,0,411,0C377.1,0,343,0,309,0C274.3,0,240,0,206,0C171.4,0,137,0,103,0C68.6,0,34,0,17,0L0,0Z"></path></svg>