<?xml version="1.0" standalone="no"?><svg xmlns="http://www.w3.org/2000/svg" viewBox="0 0 1440 320"><path fill="#5000ca" fill-opacity="1" d="M0,160L17.1,154.7C34.3,149,69,139,103,138.7C137.1,139,171,149,206,154.7C240,160,274,160,309,149.3C342.9,139,377,117,411,106.7C445.7,96,480,96,514,128C548.6,160,583,224,617,229.3C651.4,235,686,181,720,181.3C754.3,181,789,235,823,234.7C857.1,235,891,181,926,181.3C960,181,994,235,1029,245.3C1062.9,256,1097,224,1131,218.7C1165.7,213,1200,235,1234,234.7C1268.6,235,1303,213,1337,218.7C1371.4,224,1406,256,1423,272L1440,288L1440,320L1422.9,320C1405.7,320,1371,320,1337,320C1302.9,320,1269,320,1234,320C1200,320,1166,320,1131,320C1097.1,320,1063,320,1029,320C994.3,320,960,320,926,320C891.4,320,857,320,823,320C788.6,320,754,320,720,320C685.7,320,651,320,617,320C582.9,320,549,320,514,320C480,320,446,320,411,320C377.1,320,343,320,309,320C274.3,320,240,320,206,320C171.4,320,137,320,103,320C68.6,320,34,320,17,320L0,320Z"></path></svg>